<svg xmlns="http://www.w3.org/2000/svg" width="124.14" height="134.618" viewBox="0 0 124.14 134.618">
  <g id="shoes" transform="translate(-764.719 -124.382)">
    <g id="Path_4" data-name="Path 4" transform="translate(746 108.382)">
      <path d="M 98.65993499755859 150.1182098388672 C 94.62400817871094 150.1182098388672 90.68762969970703 149.2708892822266 86.96012115478516 147.5997619628906 C 83.22940826416016 145.9272155761719 79.89251708984375 143.5122528076172 77.04209899902344 140.4219665527344 L 59.74226379394531 121.767951965332 C 58.66055297851563 120.6080093383789 58.04304504394531 118.998046875 58.04713439941406 117.3498611450195 L 58.04713439941406 110.1737747192383 C 58.04555511474609 108.6624069213867 56.88809967041016 107.4318466186523 55.46695327758789 107.4301376342773 L 48.92146301269531 107.4301528930664 L 48.90484619140625 107.43017578125 C 47.38311767578125 107.43017578125 45.95200729370117 106.7871551513672 44.87513732910156 105.6195526123047 L 24.57111740112305 83.72684478759766 C 22.8277530670166 81.84706115722656 21.4777717590332 79.65479278564453 20.55866241455078 77.2109375 C 19.66999053955078 74.84795379638672 19.21939086914063 72.35064697265625 19.21939086914063 69.78833770751953 C 19.21939086914063 67.22602844238281 19.66999053955078 64.72872161865234 20.55866241455078 62.36575698852539 C 21.4777717590332 59.92190170288086 22.8277530670166 57.72962951660156 24.57111740112305 55.84984588623047 L 27.3112621307373 52.895263671875 L 55.58064651489258 22.41381072998047 C 56.66313552856445 21.25042724609375 58.09908294677734 20.6093921661377 59.62342834472656 20.6093921661377 C 61.02680969238281 20.6093921661377 62.37880706787109 21.16577339172363 63.43037033081055 22.17606353759766 L 63.79735565185547 22.52862739562988 L 64.14338684082031 22.15548324584961 L 68.92707824707031 16.99713706970215 C 69.22438812255859 16.67657279968262 69.61677551269531 16.50000953674316 70.03189849853516 16.50000953674316 L 128.2941131591797 16.50000953674316 C 128.9300689697266 16.49997329711914 129.5014495849609 16.91775512695313 129.7498474121094 17.5643367767334 C 130.0051879882813 18.22902870178223 129.8674468994141 18.98495483398438 129.3988952636719 19.49015617370605 L 100.7752456665039 50.3538818359375 L 100.6076812744141 50.53455352783203 L 100.6488800048828 50.77750015258789 C 100.7114639282227 51.14642715454102 100.743408203125 51.52364730834961 100.7438049316406 51.89870071411133 L 100.7438049316406 60.40097427368164 L 100.7438049316406 60.49906539916992 L 100.7808609008789 60.58988189697266 L 105.5510635375977 72.27979278564453 L 105.6780090332031 72.59088134765625 L 106.0140075683594 72.59088134765625 L 107.4861907958984 72.59088134765625 C 108.3058242797852 72.59595489501953 108.9791564941406 73.28177642822266 109.0492782592773 74.1861572265625 C 109.1187744140625 75.08204650878906 108.5433197021484 75.90220642089844 107.7392272949219 76.05335235595703 L 107.1372299194336 76.16651916503906 L 107.3686447143555 76.73366546630859 L 109.213264465332 81.25431823730469 L 109.3402099609375 81.56540679931641 L 109.6762084960938 81.56540679931641 L 111.6477737426758 81.56540679931641 C 112.5194244384766 81.56540679931641 113.2285537719727 82.34761047363281 113.2285537719727 83.30904388427734 C 113.2285537719727 84.27048492431641 112.5194244384766 85.05268096923828 111.6477737426758 85.05268096923828 L 111.5073165893555 85.05268096923828 L 110.7632598876953 85.05268096923828 L 111.0443725585938 85.74159240722656 L 112.8754653930664 90.22886657714844 L 113.0024108886719 90.53995513916016 L 113.3384094238281 90.53995513916016 L 115.8093566894531 90.53995513916016 C 116.6810073852539 90.53995513916016 117.3901519775391 91.32215881347656 117.3901519775391 92.28359222412109 C 117.3901519775391 93.24502563476563 116.6810073852539 94.02722930908203 115.8093566894531 94.02722930908203 L 115.1695022583008 94.02722930908203 L 114.4254455566406 94.02722930908203 L 114.7065505981445 94.71614074707031 L 116.5376663208008 99.20339202880859 L 116.6646118164063 99.51448059082031 L 117.0006103515625 99.51448059082031 L 119.9709320068359 99.51448059082031 C 120.8425903320313 99.51448059082031 121.5517349243164 100.2966842651367 121.5517349243164 101.2581176757813 C 121.5517349243164 102.2195587158203 120.8425903320313 103.0017547607422 119.9709320068359 103.0017547607422 L 118.8316955566406 103.0017547607422 L 118.087646484375 103.0017547607422 L 118.3687515258789 103.6906661987305 L 122.9465179443359 114.9088439941406 L 123.0734634399414 115.2199401855469 L 123.4094619750977 115.2199401855469 L 128.2941131591797 115.2199401855469 C 132.0417938232422 115.2245559692383 135.5678100585938 116.8032455444336 138.2220458984375 119.6652069091797 C 140.8859405517578 122.5375518798828 142.3553771972656 126.3591156005859 142.3596649169922 130.4259185791016 L 142.3596801757813 139.3999176025391 C 142.3567047119141 142.2681884765625 141.3206481933594 144.9634399414063 139.4423828125 146.9886779785156 C 137.5737915039063 149.0035247802734 135.0923156738281 150.1148986816406 132.4550933837891 150.1180877685547 L 98.74477386474609 150.1180877685547 L 98.65993499755859 150.1182098388672 Z M 84.59746551513672 130.9241333007813 C 85.01284790039063 130.9241333007813 85.40547943115234 131.100830078125 85.70302581787109 131.4216461181641 C 86.34089660644531 132.1094512939453 86.34089660644531 133.2285919189453 85.70302581787109 133.9163970947266 L 81.00562286376953 138.9810791015625 L 80.66210174560547 139.3514862060547 L 81.0360107421875 139.6911773681641 C 85.96212005615234 144.1665954589844 92.22442626953125 146.6311950683594 98.66937255859375 146.6309356689453 L 98.74628448486328 146.6308288574219 L 105.405387878418 146.6308288574219 L 105.905387878418 146.6308288574219 L 105.905387878418 146.1308288574219 L 105.905387878418 143.8871917724609 C 105.905387878418 142.9257507324219 106.6145324707031 142.1435546875 107.4861907958984 142.1435546875 C 108.3578414916992 142.1435546875 109.0669708251953 142.9257507324219 109.0669708251953 143.8871917724609 L 109.0669708251953 146.1308288574219 L 109.0669708251953 146.6308288574219 L 109.5669708251953 146.6308288574219 L 122.0517349243164 146.6308288574219 L 122.5517349243164 146.6308288574219 L 122.5517349243164 146.1308288574219 L 122.5517349243164 143.8871917724609 C 122.5517349243164 142.9257507324219 123.2608795166016 142.1435546875 124.1325378417969 142.1435546875 C 125.0041885375977 142.1435546875 125.7133178710938 142.9257507324219 125.7133178710938 143.8871917724609 L 125.7133178710938 146.1308288574219 L 125.7133178710938 146.6308288574219 L 126.2133178710938 146.6308288574219 L 132.4557037353516 146.6308288574219 C 136.1695861816406 146.6263427734375 139.1939544677734 143.3828125 139.1981048583984 139.4004516601563 L 139.1981048583984 137.1562805175781 L 139.1981048583984 136.6562805175781 L 138.6981048583984 136.6562805175781 L 113.6674423217773 136.6562957763672 L 113.593864440918 136.6564025878906 C 110.1055374145508 136.6564025878906 106.7031936645508 135.9240112304688 103.4813385009766 134.4795532226563 C 100.2563705444336 133.0337219238281 97.37171936035156 130.9459991455078 94.90753936767578 128.2743682861328 L 28.78264427185059 56.97457504272461 L 28.41600799560547 56.57922744750977 L 28.04940795898438 56.974609375 L 26.7806453704834 58.34295654296875 C 22.07257270812988 63.42202758789063 21.03624534606934 71.35439300537109 24.26042747497559 77.63304901123047 L 24.58646202087402 78.26797485351563 L 25.07180786132813 77.74464416503906 L 29.39126205444336 73.08713531494141 C 29.68880844116211 72.76630401611328 30.08144569396973 72.58963012695313 30.496826171875 72.58963012695313 C 30.91220855712891 72.58963012695313 31.30484390258789 72.76630401611328 31.60239028930664 73.08713531494141 C 32.24026107788086 73.77494049072266 32.24026107788086 74.89406585693359 31.60239028930664 75.58188629150391 L 26.88600921630859 80.6673583984375 L 26.57068061828613 81.00735473632813 L 26.88600921630859 81.34735870361328 L 36.42644500732422 91.63440704345703 L 36.79304504394531 92.02970123291016 L 37.15964508056641 91.63440704345703 L 41.87602615356445 86.54893493652344 C 42.1735725402832 86.22811889648438 42.56618881225586 86.05142974853516 42.98159027099609 86.05142974853516 C 43.39697265625 86.05142974853516 43.78960800170898 86.22811889648438 44.08715438842773 86.54893493652344 C 44.72502517700195 87.23675537109375 44.72502517700195 88.35588073730469 44.08715438842773 89.04368591308594 L 39.37077331542969 94.12915802001953 L 39.05544662475586 94.46915435791016 L 39.37075424194336 94.80915832519531 L 47.08348083496094 103.1257705688477 C 47.56228256225586 103.6447219848633 48.2304801940918 103.9429016113281 48.91586303710938 103.9428634643555 L 48.92295455932617 103.9428634643555 L 55.46635437011719 103.9428634643555 C 58.62886428833008 103.9467010498047 61.20515441894531 106.7421035766602 61.20871734619141 110.1743011474609 L 61.20873641967773 117.3486251831055 C 61.20691680908203 118.0747909545898 61.47102737426758 118.7597732543945 61.95240783691406 119.2761154174805 L 65.50375366210938 123.1042633056641 L 65.87040710449219 123.4994812011719 L 66.23695373535156 123.1041717529297 L 71.00717163085938 117.9597930908203 C 71.30467987060547 117.6389923095703 71.69731903076172 117.4623184204102 72.11270141601563 117.4623184204102 C 72.52808380126953 117.4623184204102 72.92071533203125 117.6389923095703 73.21826171875 117.959831237793 C 73.85613250732422 118.6476440429688 73.85613250732422 119.7667770385742 73.21826171875 120.4545745849609 L 68.44728088378906 125.5980834960938 L 68.13191986083984 125.9380798339844 L 68.447265625 126.2781219482422 L 77.98847961425781 136.5660247802734 L 78.35511779785156 136.9613494873047 L 78.72171783447266 136.5659942626953 L 83.49192047119141 131.4216156005859 C 83.7894287109375 131.100830078125 84.18206024169922 130.9241333007813 84.59746551513672 130.9241333007813 Z M 49.72397232055664 33.60380935668945 L 48.85737228393555 34.53822708129883 L 42.68078994750977 41.19817352294922 L 42.39862823486328 41.50242614746094 L 42.64564514160156 41.8358268737793 C 43.95377349853516 43.60140991210938 44.96224594116211 45.57515716552734 45.64302825927734 47.70224761962891 C 46.30668258666992 49.77579116821289 46.6431884765625 51.94235610961914 46.6431884765625 54.14179229736328 C 46.6431884765625 56.34122848510742 46.30668258666992 58.50779342651367 45.64302825927734 60.58133697509766 C 44.96224594116211 62.70842742919922 43.95377349853516 64.68217468261719 42.64564514160156 66.44775390625 L 42.39862823486328 66.78115844726563 L 42.68078994750977 67.08541107177734 L 97.11589813232422 125.7805938720703 C 101.4470596313477 130.4760131835938 107.4575881958008 133.1693878173828 113.6053924560547 133.1691131591797 L 113.6689147949219 133.1690216064453 L 138.6981048583984 133.1690216064453 L 139.1981048583984 133.1690216064453 L 139.1981048583984 132.6690216064453 L 139.1981048583984 130.4253845214844 C 139.1913757324219 123.9710083007813 134.3001403808594 118.714485168457 128.2947235107422 118.7071914672852 L 117.0788955688477 118.7071914672852 C 113.1594848632813 118.706428527832 109.603157043457 116.1985702514648 108.0188064575195 112.3181381225586 L 104.3441543579102 103.3128433227539 L 104.2172088623047 103.0017547607422 L 103.8812103271484 103.0017547607422 L 97.08220672607422 103.0017547607422 C 96.21055603027344 103.0017547607422 95.50142669677734 102.2195587158203 95.50142669677734 101.2581176757813 C 95.50142669677734 100.2966842651367 96.21055603027344 99.51448059082031 97.08220672607422 99.51448059082031 L 102.0501174926758 99.51448059082031 L 102.7941741943359 99.51448059082031 L 102.5130615234375 98.82557678222656 L 100.6819534301758 94.33831787109375 L 100.5550079345703 94.02722930908203 L 100.2190093994141 94.02722930908203 L 92.92062377929688 94.02722930908203 C 92.04897308349609 94.02722930908203 91.33984375 93.24502563476563 91.33984375 92.28359222412109 C 91.33984375 91.32215881347656 92.04897308349609 90.53995513916016 92.92062377929688 90.53995513916016 L 98.38791656494141 90.53995513916016 L 99.13197326660156 90.53995513916016 L 98.85086059570313 89.85104370117188 L 97.01975250244141 85.36377716064453 L 96.89280700683594 85.05268096923828 L 96.55680847167969 85.05268096923828 L 88.75904846191406 85.05268096923828 C 87.88739013671875 85.05268096923828 87.17824554443359 84.27048492431641 87.17824554443359 83.30904388427734 C 87.17824554443359 82.34761047363281 87.88739013671875 81.56540679931641 88.75904846191406 81.56540679931641 L 94.72571563720703 81.56540679931641 L 95.46977233886719 81.56540679931641 L 95.18865966796875 80.87650299072266 L 93.35755157470703 76.38922882080078 L 93.23060607910156 76.07814025878906 L 92.89460754394531 76.07814025878906 L 86.61582946777344 76.07814025878906 L 86.54462432861328 76.0782470703125 C 83.05649566650391 76.0782470703125 79.6541748046875 75.3458251953125 76.43215179443359 73.90135192871094 C 73.20702362060547 72.45549774169922 70.32235717773438 70.36788177490234 67.85826110839844 67.69650268554688 L 57.51319122314453 56.54184722900391 C 55.02370071411133 53.87202835083008 53.08048248291016 50.74519348144531 51.73659133911133 47.24717330932617 C 50.39180755615234 43.74684524536133 49.71466445922852 40.0506477355957 49.72397232055664 36.26126480102539 L 49.72397232055664 34.87822723388672 L 49.72397232055664 33.60380935668945 Z M 107.6836776733398 103.0017547607422 L 107.9647903442383 103.6906661987305 L 110.902587890625 110.890007019043 C 111.9772109985352 113.5204086303711 114.4015197753906 115.2199401855469 117.0788955688477 115.2199401855469 L 118.8629150390625 115.2199401855469 L 119.6069717407227 115.2199401855469 L 119.3258666992188 114.5310287475586 L 114.7481155395508 103.3128433227539 L 114.6211700439453 103.0017547607422 L 114.2851715087891 103.0017547607422 L 108.427734375 103.0017547607422 L 107.6836776733398 103.0017547607422 Z M 104.021484375 94.02722930908203 L 104.3025894165039 94.71614074707031 L 106.1336975097656 99.20339202880859 L 106.2606430053711 99.51448059082031 L 106.5966415405273 99.51448059082031 L 112.4540786743164 99.51448059082031 L 113.1981353759766 99.51448059082031 L 112.9170303344727 98.82557678222656 L 111.0859146118164 94.33831787109375 L 110.9589691162109 94.02722930908203 L 110.6229705810547 94.02722930908203 L 104.7655334472656 94.02722930908203 L 104.021484375 94.02722930908203 Z M 100.3592987060547 85.05268096923828 L 100.6404113769531 85.74159240722656 L 102.4714965820313 90.22886657714844 L 102.5984420776367 90.53995513916016 L 102.9344482421875 90.53995513916016 L 108.791877746582 90.53995513916016 L 109.5359344482422 90.53995513916016 L 109.2548294067383 89.85104370117188 L 107.4237213134766 85.36377716064453 L 107.2967758178711 85.05268096923828 L 106.9607696533203 85.05268096923828 L 101.1033554077148 85.05268096923828 L 100.3592987060547 85.05268096923828 Z M 96.69709777832031 76.07814025878906 L 96.97821044921875 76.76704406738281 L 98.80931854248047 81.25431823730469 L 98.93626403808594 81.56540679931641 L 99.27226257324219 81.56540679931641 L 105.1296844482422 81.56540679931641 L 105.8737335205078 81.56540679931641 L 105.5926284790039 80.87650299072266 L 103.7615356445313 76.38922882080078 L 103.6345901489258 76.07814025878906 L 103.2985916137695 76.07814025878906 L 97.44115447998047 76.07814025878906 L 96.69709777832031 76.07814025878906 Z M 59.62839126586914 24.08933639526367 C 58.94168090820313 24.08933639526367 58.27159118652344 24.38720893859863 57.78993606567383 24.90657424926758 L 53.01895523071289 30.05095481872559 L 52.88555526733398 30.19479179382324 L 52.88555526733398 30.39095497131348 L 52.88555526733398 36.26002883911133 C 52.86868286132813 42.88773727416992 55.36067962646484 49.37271881103516 59.72260665893555 54.05088424682617 L 70.06584167480469 65.20355224609375 C 74.39626312255859 69.89801025390625 80.40604400634766 72.59097290039063 86.55329895019531 72.59097290039063 L 86.61730194091797 72.59088134765625 L 91.06351470947266 72.59088134765625 L 91.80757141113281 72.59088134765625 L 91.52646636962891 71.90196990966797 L 87.86426544189453 62.92742919921875 L 87.73731994628906 62.61633682250977 L 87.40131378173828 62.61633682250977 L 87.33110046386719 62.61633682250977 L 87.28059387207031 62.61640930175781 C 84.88739013671875 62.61640930175781 82.55299377441406 62.11384582519531 80.34224700927734 61.12266540527344 C 78.12850189208984 60.13015365600586 76.14824676513672 58.69684600830078 74.45648193359375 56.86257171630859 L 67.560302734375 49.42670059204102 C 65.84988403320313 47.59242630004883 64.51493835449219 45.44424438476563 63.59164428710938 43.04080963134766 C 62.66746139526367 40.63508224487305 62.20217132568359 38.09462738037109 62.20871734619141 35.49002838134766 L 62.20871734619141 26.83310127258301 C 62.20878982543945 25.72541046142578 61.58837127685547 24.73253631591797 60.62813568115234 24.30366516113281 C 60.30971908569336 24.16144561767578 59.97335433959961 24.08933639526367 59.62839126586914 24.08933639526367 Z M 91.20381164550781 62.61633682250977 L 91.48491668701172 63.30524444580078 L 95.14711761474609 72.27979278564453 L 95.27406311035156 72.59088134765625 L 95.61006164550781 72.59088134765625 L 101.4674987792969 72.59088134765625 L 102.211555480957 72.59088134765625 L 101.9304428100586 71.90196990966797 L 98.26824188232422 62.92742919921875 L 98.14129638671875 62.61633682250977 L 97.8052978515625 62.61633682250977 L 91.94786071777344 62.61633682250977 L 91.20381164550781 62.61633682250977 Z M 40.13966369628906 43.93817520141602 L 39.71644592285156 44.3945198059082 L 30.99193572998047 53.80179214477539 L 30.67660903930664 54.14179229736328 L 30.99193572998047 54.48179244995117 L 39.71644592285156 63.88906478881836 L 40.13966369628906 64.34541320800781 L 40.49406433105469 63.83377456665039 C 44.44686126708984 58.12728118896484 44.44686126708984 50.15629959106445 40.49406433105469 44.44981002807617 L 40.13966369628906 43.93817520141602 Z M 88.7584228515625 49.15451812744141 C 87.3372802734375 49.15624618530273 86.17982482910156 50.38681030273438 86.17824554443359 51.89762878417969 L 86.17824554443359 58.61195373535156 L 86.17824554443359 59.08859252929688 L 86.65433502197266 59.11139297485352 C 86.90293884277344 59.12328338623047 87.12429809570313 59.12906265258789 87.33110046386719 59.12906265258789 L 97.08220672607422 59.12906265258789 L 97.58220672607422 59.12906265258789 L 97.58220672607422 58.62906265258789 L 97.58220672607422 51.89815521240234 C 97.58062744140625 50.38681030273438 96.42317199707031 49.15624618530273 95.00204467773438 49.15451812744141 L 88.75904846191406 49.15451812744141 L 88.75873565673828 49.15451812744141 L 88.7584228515625 49.15451812744141 Z M 70.67539215087891 19.98726463317871 L 70.52699279785156 20.14728164672852 L 65.45039367675781 25.62148284912109 L 65.29273223876953 25.79148292541504 L 65.32064819335938 26.02166366577148 C 65.35321044921875 26.29008293151855 65.36991882324219 26.5633373260498 65.37031555175781 26.83384704589844 L 65.37031555175781 35.48877334594727 C 65.35939025878906 39.75230026245117 66.96330261230469 43.92502975463867 69.77079010009766 46.93577194213867 L 76.66510009765625 54.36960983276367 C 78.25229644775391 56.08682632446289 80.21492004394531 57.41853713989258 82.3402099609375 58.22017288208008 L 83.01666259765625 58.47533798217773 L 83.01666259765625 57.75235366821289 L 83.01666259765625 51.89815521240234 C 83.02024841308594 48.46648406982422 85.59653472900391 45.67108154296875 88.7596435546875 45.66726303100586 L 95.00142669677734 45.66726303100586 L 95.00730133056641 45.66726303100586 C 96.32411956787109 45.66726303100586 97.61037445068359 46.16637420654297 98.62908172607422 47.07266616821289 L 98.99501037597656 47.398193359375 L 99.32802581787109 47.03910064697266 L 123.6374282836914 20.8272647857666 L 124.4164657592773 19.98726463317871 L 123.2708282470703 19.98726463317871 L 70.89360809326172 19.98726463317871 L 70.67539215087891 19.98726463317871 Z" stroke="none"/>
      <path d="M 98.65993499755859 149.6182098388672 L 98.74477386474609 149.6180877685547 L 132.4544982910156 149.6180877685547 C 134.9512329101563 149.6150665283203 137.3027191162109 148.5605163574219 139.0757904052734 146.648681640625 C 140.8681488037109 144.7160491943359 141.8568267822266 142.141357421875 141.8596801757813 139.3999176025391 L 141.8596649169922 130.4264526367188 C 141.8554992675781 126.485954284668 140.4334411621094 122.7849578857422 137.8554382324219 120.0052108764648 C 135.2967376708984 117.2462463378906 131.9006805419922 115.7243728637695 128.2941131591797 115.7199401855469 L 123.4094619750977 115.7199401855469 L 122.7374801635742 115.7199401855469 L 122.4835891723633 115.0977554321289 L 117.9058303833008 103.8795700073242 L 117.3435745239258 102.5017547607422 L 118.8316955566406 102.5017547607422 L 119.9709320068359 102.5017547607422 C 120.5669021606445 102.5017547607422 121.0517349243164 101.9438629150391 121.0517349243164 101.2581176757813 C 121.0517349243164 100.5723724365234 120.5669021606445 100.0144805908203 119.9709320068359 100.0144805908203 L 117.0006103515625 100.0144805908203 L 116.3286285400391 100.0144805908203 L 116.0747375488281 99.39230346679688 L 114.2436294555664 94.90504455566406 L 113.6813735961914 93.52722930908203 L 115.1695022583008 93.52722930908203 L 115.8093566894531 93.52722930908203 C 116.4053192138672 93.52722930908203 116.8901519775391 92.96933746337891 116.8901519775391 92.28359222412109 C 116.8901519775391 91.59784698486328 116.4053192138672 91.03995513916016 115.8093566894531 91.03995513916016 L 113.3384094238281 91.03995513916016 L 112.6664276123047 91.03995513916016 L 112.4125366210938 90.41777038574219 L 110.5814437866211 85.93050384521484 L 110.0192108154297 84.55268096923828 L 111.5073165893555 84.55268096923828 L 111.6477737426758 84.55268096923828 C 112.2437210083008 84.55268096923828 112.7285537719727 83.99478912353516 112.7285537719727 83.30904388427734 C 112.7285537719727 82.62329864501953 112.2437210083008 82.06540679931641 111.6477737426758 82.06540679931641 L 109.6762084960938 82.06540679931641 L 109.0042114257813 82.06540679931641 L 108.7503204345703 81.44320678710938 L 106.9057006835938 76.92255401611328 L 106.4428787231445 75.78828430175781 L 107.646842956543 75.56197357177734 C 108.2037506103516 75.45728302001953 108.6008071899414 74.86993408203125 108.5507888793945 74.22483062744141 C 108.5018081665039 73.59324645996094 108.0326766967773 73.09566497802734 107.4822998046875 73.09088134765625 L 106.0140075683594 73.09088134765625 L 105.3420104980469 73.09088134765625 L 105.088134765625 72.46870422363281 L 100.3179321289063 60.77879333496094 L 100.2438049316406 60.5971565246582 L 100.2438049316406 60.40097427368164 L 100.2438049316406 51.89922714233398 C 100.2434234619141 51.55193710327148 100.2138595581055 51.20266342163086 100.1559371948242 50.86111831665039 L 100.0735015869141 50.37522888183594 L 100.4086303710938 50.01388168334961 L 129.0323028564453 19.15013694763184 C 129.3668975830078 18.78937339782715 129.4676818847656 18.22413635253906 129.2830963134766 17.7436466217041 C 129.1095581054688 17.29188346862793 128.7213745117188 16.99999237060547 128.2941131591797 17.00000953674316 L 70.03189849853516 17.00000953674316 C 69.75748443603516 17.00000953674316 69.49531555175781 17.11975479125977 69.293701171875 17.33713722229004 L 64.510009765625 22.4954833984375 L 63.81791687011719 23.24177360534668 L 63.0839729309082 22.53662872314453 C 62.12599182128906 21.61626434326172 60.89700698852539 21.1093921661377 59.62342834472656 21.1093921661377 C 58.23948287963867 21.1093921661377 56.93353652954102 21.69380950927734 55.94726181030273 22.75380897521973 L 27.67788124084473 53.23526382446289 L 24.93773651123047 56.18984603881836 C 17.98362731933594 63.68808364868164 17.98362731933594 75.88858795166016 24.93773651123047 83.38684844970703 L 45.24267959594727 105.2805709838867 C 46.22378921508789 106.3443374633789 47.52437210083008 106.93017578125 48.90484619140625 106.93017578125 L 48.92146301269531 106.9301528930664 L 55.46755218505859 106.9301376342773 C 57.16377258300781 106.9321746826172 58.54528045654297 108.3867950439453 58.54713439941406 110.1737747192383 L 58.54713439941406 117.3511199951172 C 58.54335403442383 118.873664855957 59.11190032958984 120.3588790893555 60.10886383056641 121.4279556274414 L 77.40962982177734 140.0829772949219 C 80.21393585205078 143.1232604980469 83.49600982666016 145.498779296875 87.16464233398438 147.1435241699219 C 90.82740783691406 148.7856140136719 94.69496917724609 149.6182098388672 98.65993499755859 149.6182098388672 M 84.59746551513672 131.4241333007813 C 84.32279205322266 131.4241333007813 84.06035614013672 131.5440063476563 83.85855102539063 131.7615661621094 L 79.08835601806641 136.9059600830078 L 78.35513305664063 137.6966857910156 L 77.62186431884766 136.9060211181641 L 68.08064270019531 126.6181182861328 L 67.449951171875 125.9380645751953 L 68.08069610595703 125.2580642700195 L 72.85164642333984 120.1145706176758 C 73.30780792236328 119.6227340698242 73.30779266357422 118.7916793823242 72.85164642333984 118.2998275756836 C 72.64981079101563 118.0821762084961 72.38737487792969 117.9623184204102 72.11270141601563 117.9623184204102 C 71.83802795410156 117.9623184204102 71.57559204101563 118.0821762084961 71.37380981445313 118.2997741699219 L 66.60359191894531 123.4441528320313 L 65.8704833984375 124.2347564697266 L 65.13720703125 123.4443206787109 L 61.58670043945313 119.6170806884766 C 61.01839065551758 119.0074996948242 60.70658874511719 118.2009887695313 60.70873641967773 117.3486251831055 L 60.70871734619141 110.1748123168945 C 60.7054443359375 107.0177001953125 58.35319137573242 104.4463729858398 55.46635437011719 104.4428634643555 L 48.92148208618164 104.4428634643555 L 48.91593551635742 104.4428634643555 C 48.09133529663086 104.4429168701172 47.2891731262207 104.0860824584961 46.71688079833984 103.4657516479492 L 39.00415420532227 95.14913940429688 L 38.37351608276367 94.46913909912109 L 39.00415420532227 93.78915405273438 L 43.72053527832031 88.70368194580078 C 44.17670059204102 88.21184539794922 44.17668151855469 87.38079071044922 43.72055435180664 86.88895416259766 C 43.51868057250977 86.67130279541016 43.25626373291016 86.55142974853516 42.98159027099609 86.55142974853516 C 42.70691680908203 86.55142974853516 42.44448089599609 86.67127990722656 42.24264526367188 86.88893890380859 L 37.52626419067383 91.97441101074219 L 36.79304504394531 92.76500701904297 L 36.0598258972168 91.97441101074219 L 26.51939010620117 81.68735504150391 L 25.88875389099121 81.00735473632813 L 26.51939010620117 80.32735443115234 L 31.23577117919922 75.24188232421875 C 31.69191741943359 74.75003051757813 31.69193649291992 73.91897583007813 31.23577117919922 73.42713928222656 C 31.033935546875 73.20948028564453 30.77149963378906 73.08963012695313 30.496826171875 73.08963012695313 C 30.22215461730957 73.08963012695313 29.959716796875 73.20948028564453 29.75788116455078 73.42713928222656 L 25.43842697143555 78.08464813232422 L 24.46773529052734 79.13130187988281 L 23.81564521789551 77.86144256591797 C 20.49728202819824 71.39937591552734 21.56571769714355 63.23333740234375 26.41399002075195 58.00299072265625 L 27.68275451660156 56.63464736938477 L 28.41597175598145 55.84390258789063 L 29.14926338195801 56.63457489013672 L 95.27507781982422 127.9353713989258 C 97.69315338134766 130.5570068359375 100.5229568481445 132.6052856445313 103.6858825683594 134.0233154296875 C 106.8429718017578 135.4387359619141 110.1764984130859 136.1564025878906 113.593864440918 136.1564025878906 L 113.6674423217773 136.1562957763672 L 138.6981048583984 136.1562805175781 L 139.6981048583984 136.1562805175781 L 139.6981048583984 137.1562805175781 L 139.6981048583984 139.4009552001953 C 139.6936645507813 143.6584167480469 136.4452819824219 147.1260070800781 132.4557037353516 147.1308288574219 L 126.2133178710938 147.1308288574219 L 125.2133178710938 147.1308288574219 L 125.2133178710938 146.1308288574219 L 125.2133178710938 143.8871917724609 C 125.2133178710938 143.2014465332031 124.7284774780273 142.6435546875 124.1325378417969 142.6435546875 C 123.5365753173828 142.6435546875 123.0517349243164 143.2014465332031 123.0517349243164 143.8871917724609 L 123.0517349243164 146.1308288574219 L 123.0517349243164 147.1308288574219 L 122.0517349243164 147.1308288574219 L 109.5669708251953 147.1308288574219 L 108.5669708251953 147.1308288574219 L 108.5669708251953 146.1308288574219 L 108.5669708251953 143.8871917724609 C 108.5669708251953 143.2014465332031 108.0821380615234 142.6435546875 107.4861907958984 142.6435546875 C 106.8902282714844 142.6435546875 106.405387878418 143.2014465332031 106.405387878418 143.8871917724609 L 106.405387878418 146.1308288574219 L 106.405387878418 147.1308288574219 L 105.405387878418 147.1308288574219 L 98.74769592285156 147.1308288574219 L 98.66938781738281 147.1309356689453 C 92.09984588623047 147.1311798095703 85.71811676025391 144.6204528808594 80.69979095458984 140.0612487792969 L 79.95197296142578 139.3818664550781 L 80.63902282714844 138.6410827636719 L 85.33641052246094 133.5763854980469 C 85.79255676269531 133.0845489501953 85.79255676269531 132.2534790039063 85.33642578125 131.7616424560547 C 85.13455200195313 131.5440063476563 84.87213897705078 131.4241333007813 84.59746551513672 131.4241333007813 M 50.22397232055664 32.32937240600586 L 50.22397232055664 34.87822723388672 L 50.22397232055664 36.26248168945313 C 50.21482849121094 39.98991775512695 50.88077163696289 43.62537384033203 52.20333480834961 47.06786346435547 C 53.52409744262695 50.50571823120117 55.43333435058594 53.57817459106445 57.87980651855469 56.20184707641602 L 68.22579193115234 67.35748291015625 C 70.64379119873047 69.97889709472656 73.47362518310547 72.02706146240234 76.63669586181641 73.44512176513672 C 79.79395294189453 74.86055755615234 83.12746429443359 75.5782470703125 86.54462432861328 75.5782470703125 L 86.61582946777344 75.57814025878906 L 92.89460754394531 75.57814025878906 L 93.56658935546875 75.57814025878906 L 93.82048034667969 76.2003173828125 L 95.65158843994141 80.68759155273438 L 96.21384429931641 82.06540679931641 L 94.72571563720703 82.06540679931641 L 88.75904846191406 82.06540679931641 C 88.16307830810547 82.06540679931641 87.67824554443359 82.62329864501953 87.67824554443359 83.30904388427734 C 87.67824554443359 83.99478912353516 88.16307830810547 84.55268096923828 88.75904846191406 84.55268096923828 L 96.55680847167969 84.55268096923828 L 97.22879028320313 84.55268096923828 L 97.48268127441406 85.17486572265625 L 99.31378936767578 89.66213989257813 L 99.87604522705078 91.03995513916016 L 98.38791656494141 91.03995513916016 L 92.92062377929688 91.03995513916016 C 92.32468414306641 91.03995513916016 91.83984375 91.59784698486328 91.83984375 92.28359222412109 C 91.83984375 92.96933746337891 92.32468414306641 93.52722930908203 92.92062377929688 93.52722930908203 L 100.2190093994141 93.52722930908203 L 100.8909912109375 93.52722930908203 L 101.1448822021484 94.14940643310547 L 102.9759902954102 98.63666534423828 L 103.5382461547852 100.0144805908203 L 102.0501174926758 100.0144805908203 L 97.08220672607422 100.0144805908203 C 96.48625946044922 100.0144805908203 96.00142669677734 100.5723724365234 96.00142669677734 101.2581176757813 C 96.00142669677734 101.9438629150391 96.48625946044922 102.5017547607422 97.08220672607422 102.5017547607422 L 103.8812103271484 102.5017547607422 L 104.5532073974609 102.5017547607422 L 104.8070983886719 103.1239395141602 L 108.4816970825195 112.1291351318359 C 109.9889373779297 115.8207015991211 113.3636093139648 118.2064666748047 117.0788955688477 118.2071914672852 L 128.2953338623047 118.2071914672852 C 134.5758209228516 118.2148132324219 139.6910858154297 123.6954116821289 139.6981048583984 130.4253845214844 L 139.6981048583984 132.6690216064453 L 139.6981048583984 133.6690216064453 L 138.6981048583984 133.6690216064453 L 113.6701202392578 133.6690216064453 L 113.6053924560547 133.6691131591797 C 107.3184051513672 133.6694030761719 101.1739196777344 130.9173583984375 96.74928283691406 126.1205902099609 L 42.31417083740234 67.42540740966797 L 41.74984359741211 66.81691741943359 L 42.24390029907227 66.15010070800781 C 43.51935577392578 64.42862701416016 44.50277328491211 62.50373840332031 45.16682815551758 60.42892074584961 C 45.81468200683594 58.40472030639648 46.14317321777344 56.2894287109375 46.1431884765625 54.14179229736328 C 46.14317321777344 51.99415588378906 45.81468200683594 49.87886428833008 45.16682815551758 47.85466384887695 C 44.50277328491211 45.77984619140625 43.51935577392578 43.85495376586914 42.24390029907227 42.13348388671875 L 41.74984359741211 41.4666633605957 L 42.31417083740234 40.85817337036133 L 48.49075317382813 34.19822692871094 L 50.22397232055664 32.32937240600586 M 106.9396057128906 102.5017547607422 L 108.427734375 102.5017547607422 L 114.2851715087891 102.5017547607422 L 114.9571533203125 102.5017547607422 L 115.2110443115234 103.1239395141602 L 119.7887878417969 114.3421173095703 L 120.3510437011719 115.7199401855469 L 118.8629150390625 115.7199401855469 L 117.0788955688477 115.7199401855469 C 114.1975021362305 115.7199401855469 111.5914993286133 113.8983764648438 110.4396667480469 111.0789184570313 L 107.5018615722656 103.8795700073242 L 106.9396057128906 102.5017547607422 M 103.2774047851563 93.52722930908203 L 104.7655334472656 93.52722930908203 L 110.6229705810547 93.52722930908203 L 111.2949523925781 93.52722930908203 L 111.5488433837891 94.14940643310547 L 113.3799514770508 98.63666534423828 L 113.9422073364258 100.0144805908203 L 112.4540786743164 100.0144805908203 L 106.5966415405273 100.0144805908203 L 105.9246597290039 100.0144805908203 L 105.670768737793 99.39230346679688 L 103.8396606445313 94.90504455566406 L 103.2774047851563 93.52722930908203 M 99.61524200439453 84.55268096923828 L 101.1033554077148 84.55268096923828 L 106.9607696533203 84.55268096923828 L 107.6327514648438 84.55268096923828 L 107.8866424560547 85.17486572265625 L 109.7177505493164 89.66213989257813 L 110.2800064086914 91.03995513916016 L 108.791877746582 91.03995513916016 L 102.9344482421875 91.03995513916016 L 102.2624664306641 91.03995513916016 L 102.0085754394531 90.41777038574219 L 100.1774826049805 85.93050384521484 L 99.61524200439453 84.55268096923828 M 95.95302581787109 75.57814025878906 L 97.44115447998047 75.57814025878906 L 103.2985916137695 75.57814025878906 L 103.970573425293 75.57814025878906 L 104.2244644165039 76.2003173828125 L 106.0555572509766 80.68759155273438 L 106.617790222168 82.06540679931641 L 105.1296844482422 82.06540679931641 L 99.27226257324219 82.06540679931641 L 98.60028076171875 82.06540679931641 L 98.34638977050781 81.44322967529297 L 96.51528167724609 76.95595550537109 L 95.95302581787109 75.57814025878906 M 59.62839126586914 23.58933639526367 C 60.04411697387695 23.58933639526367 60.44910049438477 23.67608261108398 60.83204650878906 23.84711837768555 C 61.97215270996094 24.35635566711426 62.70878982543945 25.52842712402344 62.70871734619141 26.83310127258301 L 62.70871734619141 35.49128341674805 C 62.70233535766602 38.03392028808594 63.15642547607422 40.51361083984375 64.05838775634766 42.86151885986328 C 64.95857238769531 45.20477294921875 66.25951385498047 47.2985725402832 67.92691802978516 49.08670043945313 L 74.82402801513672 56.52357482910156 C 76.46968078613281 58.30786514282227 78.39509582519531 59.70171737670898 80.54679107666016 60.66642761230469 C 82.69277191162109 61.62855529785156 84.95835113525391 62.11640930175781 87.28059387207031 62.11640930175781 L 87.33110046386719 62.11633682250977 L 87.40131378173828 62.11633682250977 L 88.07329559326172 62.11633682250977 L 88.32718658447266 62.73851776123047 L 91.98938751220703 71.71306610107422 L 92.55164337158203 73.09088134765625 L 91.06351470947266 73.09088134765625 L 86.61844635009766 73.09088134765625 L 86.55329895019531 73.09097290039063 C 80.26686096191406 73.09097290039063 74.12313842773438 70.33934020996094 69.69922637939453 65.54355621337891 L 59.35689926147461 54.391845703125 C 54.90931701660156 49.62181091308594 52.36835479736328 43.01208114624023 52.38555526733398 36.26002883911133 L 52.38555526733398 30.39095497131348 L 52.38555526733398 29.99862861633301 L 52.65233612060547 29.7109546661377 L 57.42331695556641 24.56661033630371 C 57.99926376342773 23.94553756713867 58.8029899597168 23.58933639526367 59.62839126586914 23.58933639526367 M 90.45973205566406 62.11633682250977 L 91.94786071777344 62.11633682250977 L 97.8052978515625 62.11633682250977 L 98.47727966308594 62.11633682250977 L 98.73117065429688 62.73851776123047 L 102.3933715820313 71.71306610107422 L 102.9556274414063 73.09088134765625 L 101.4674987792969 73.09088134765625 L 95.61006164550781 73.09088134765625 L 94.93807983398438 73.09088134765625 L 94.68418884277344 72.46870422363281 L 91.02198791503906 63.49415588378906 L 90.45973205566406 62.11633682250977 M 40.19628143310547 43.14182662963867 L 40.90509796142578 44.16510009765625 C 45.03858947753906 50.13246536254883 45.03858947753906 58.15111923217773 40.90509796142578 64.11848449707031 L 40.19628143310547 65.14175415039063 L 39.34982681274414 64.22906494140625 L 30.62531661987305 54.82179260253906 L 29.99468040466309 54.14179229736328 L 30.62531661987305 53.4617919921875 L 39.34982681274414 44.05451965332031 L 40.19628143310547 43.14182662963867 M 88.75782775878906 48.65451812744141 L 88.7584228515625 48.65451812744141 L 88.75904846191406 48.65451812744141 L 95.00264739990234 48.65451812744141 C 96.69886016845703 48.65659332275391 98.08035278320313 50.11120986938477 98.08220672607422 51.89815521240234 L 98.08220672607422 58.62906265258789 L 98.08220672607422 59.62906265258789 L 97.08220672607422 59.62906265258789 L 87.33110046386719 59.62906265258789 C 87.11626434326172 59.62906265258789 86.88706207275391 59.62310028076172 86.63044738769531 59.61080932617188 L 85.67824554443359 59.56524658203125 L 85.67824554443359 58.61195373535156 L 85.67824554443359 51.89711761474609 C 85.68009948730469 50.11120986938477 87.06160736083984 48.65659332275391 88.75782775878906 48.65451812744141 M 70.4571533203125 19.48726463317871 L 70.89360809326172 19.48726463317871 L 123.2708282470703 19.48726463317871 L 125.5620956420898 19.48726463317871 L 124.0040435791016 21.16726493835449 L 99.69464111328125 47.37910079956055 L 99.02857208251953 48.09728240966797 L 98.2967529296875 47.44622802734375 C 97.36965942382813 46.62148284912109 96.20144653320313 46.16726303100586 95.00730133056641 46.16726303100586 L 95.00142669677734 46.16726303100586 L 88.76024627685547 46.16726303100586 C 85.87222290039063 46.17075347900391 83.51995086669922 48.74208068847656 83.51666259765625 51.89815521240234 L 83.51666259765625 57.75235366821289 L 83.51666259765625 59.19831848144531 L 82.16373443603516 58.68801116943359 C 79.96615600585938 57.85910034179688 77.93756866455078 56.48295593261719 76.29848480224609 54.70960998535156 L 69.40509796142578 47.27675628662109 C 66.51193237304688 44.17413711547852 64.85907745361328 39.87664794921875 64.87031555175781 35.48877334594727 L 64.87031555175781 26.83459091186523 C 64.86993408203125 26.58388328552246 64.85446166992188 26.33062744140625 64.82427978515625 26.08186531066895 L 64.76844787597656 25.62151908874512 L 65.08377075195313 25.2814826965332 L 70.16036987304688 19.80728340148926 L 70.4571533203125 19.48726463317871 M 98.65992736816406 150.6182098388672 C 90.40814208984375 150.6182098388672 82.49519348144531 147.0713958740234 76.67457580566406 140.7609710693359 L 59.37564468383789 122.1079559326172 C 58.20111846923828 120.8484802246094 57.54269790649414 119.1347198486328 57.54713439941406 117.3486251831055 L 57.54713439941406 110.1737747192383 C 57.54584503173828 108.9352264404297 56.61500930786133 107.9315185546875 55.46635437011719 107.9301376342773 L 48.92146301269531 107.9301528930664 C 48.91590118408203 107.9301681518555 48.91039657592773 107.93017578125 48.90483474731445 107.93017578125 C 47.25441360473633 107.93017578125 45.67172241210938 107.2207412719727 44.50759124755859 105.9585342407227 L 24.20451736450195 84.06684875488281 C 16.8910083770752 76.18106079101563 16.8910083770752 63.39561080932617 24.20451736450195 55.50984573364258 L 26.94466209411621 52.55526351928711 L 55.21404647827148 22.07381057739258 C 56.42915344238281 20.76788902282715 58.02448272705078 20.10939598083496 59.62343597412109 20.10939598083496 C 61.10506057739258 20.10939598083496 62.58984756469727 20.67517852783203 63.77677154541016 21.81550025939941 L 68.56046295166016 16.65715599060059 C 68.95069885253906 16.23639106750488 69.47997283935547 16.00000953674316 70.03189849853516 16.00000953674316 L 128.2941131591797 16.00000953674316 C 129.1357421875 15.99997329711914 129.8945007324219 16.54660987854004 130.2165832519531 17.38502883911133 C 130.5386657714844 18.22342872619629 130.3606262207031 19.1884822845459 129.7655029296875 19.83015441894531 L 101.141845703125 50.69388198852539 C 101.2092437744141 51.09120941162109 101.2433700561523 51.49424743652344 101.2438049316406 51.89815521240234 L 101.2438049316406 60.40097427368164 L 106.0140075683594 72.09088134765625 L 107.4861907958984 72.09088134765625 C 108.5635528564453 72.0975341796875 109.4580078125 72.98984527587891 109.5477905273438 74.14749908447266 C 109.6375732421875 75.30515289306641 108.892951965332 76.34524536132813 107.8315887451172 76.54475402832031 L 109.6762084960938 81.06540679931641 L 111.6477737426758 81.06540679931641 C 112.7969512939453 81.06540679931641 113.7285537719727 82.06991577148438 113.7285537719727 83.30904388427734 C 113.7285537719727 84.54817199707031 112.7969512939453 85.55268096923828 111.6477737426758 85.55268096923828 L 111.5073165893555 85.55268096923828 L 113.3384094238281 90.03995513916016 L 115.8093566894531 90.03995513916016 C 116.9585342407227 90.03995513916016 117.8901519775391 91.04446411132813 117.8901519775391 92.28359222412109 C 117.8901519775391 93.52269744873047 116.9585342407227 94.52722930908203 115.8093566894531 94.52722930908203 L 115.1695022583008 94.52722930908203 L 117.0006103515625 99.01448059082031 L 119.9709320068359 99.01448059082031 C 121.1201324462891 99.01448059082031 122.0517349243164 100.0189895629883 122.0517349243164 101.2581176757813 C 122.0517349243164 102.4972457885742 121.1201324462891 103.5017547607422 119.9709320068359 103.5017547607422 L 118.8316955566406 103.5017547607422 L 123.4094619750977 114.7199401855469 L 128.2941131591797 114.7199401855469 L 128.2941284179688 114.7199401855469 C 136.3346557617188 114.7298278808594 142.8504943847656 121.7556076049805 142.8596649169922 130.4253845214844 L 142.8596801757813 139.3999176025391 C 142.8532257080078 145.5926666259766 138.1989898681641 150.6111602783203 132.4557037353516 150.6180877685547 L 98.74477386474609 150.6180877685547 C 98.71646118164063 150.6181640625 98.688232421875 150.6182098388672 98.65992736816406 150.6182098388672 Z M 84.59746551513672 130.4241333007813 C 85.13021850585938 130.4241333007813 85.66313934326172 130.6433563232422 86.06962585449219 131.0816497802734 C 86.88265991210938 131.9583129882813 86.88268280029297 133.3796997070313 86.06962585449219 134.2563934326172 L 81.37222290039063 139.3211059570313 C 86.21383666992188 143.7197570800781 92.33986663818359 146.1311798095703 98.66935729980469 146.1309356689453 C 98.69417572021484 146.1309356689453 98.71994781494141 146.1309051513672 98.74477386474609 146.1308288574219 L 105.405387878418 146.1308288574219 L 105.405387878418 143.8871917724609 C 105.405387878418 142.6480712890625 106.3369903564453 141.6435546875 107.4861907958984 141.6435546875 C 108.635368347168 141.6435546875 109.5669708251953 142.6480712890625 109.5669708251953 143.8871917724609 L 109.5669708251953 146.1308288574219 L 122.0517349243164 146.1308288574219 L 122.0517349243164 143.8871917724609 C 122.0517349243164 142.6480712890625 122.9833374023438 141.6435546875 124.1325378417969 141.6435546875 C 125.2817153930664 141.6435546875 126.2133178710938 142.6480712890625 126.2133178710938 143.8871917724609 L 126.2133178710938 146.1308288574219 L 132.4557037353516 146.1308288574219 C 135.9016876220703 146.1266632080078 138.6942291259766 143.1155700683594 138.6981048583984 139.3999176025391 L 138.6981048583984 137.1562805175781 L 113.6674423217773 137.1562957763672 C 113.6429138183594 137.1563720703125 113.6183853149414 137.1564025878906 113.5938568115234 137.1564025878906 C 106.4423141479492 137.1564025878906 99.58448791503906 134.0824890136719 94.54000854492188 128.6133728027344 L 28.41604423522949 57.3145751953125 L 27.14728164672852 58.68291854858398 C 22.55355453491211 63.63864517211914 21.55748176574707 71.27486419677734 24.70520782470703 77.40464782714844 L 29.02466201782227 72.74713897705078 C 29.43119049072266 72.30879211425781 29.96400833129883 72.08962249755859 30.496826171875 72.08962249755859 C 31.02964401245117 72.08962249755859 31.56246376037598 72.30879211425781 31.96899032592773 72.74713897705078 C 32.78204345703125 73.62380981445313 32.78204345703125 75.04518890380859 31.96899032592773 75.92188262939453 L 27.25260925292969 81.00735473632813 L 36.79304504394531 91.29441070556641 L 41.50942611694336 86.20893859863281 C 41.91595458984375 85.77059173583984 42.44876480102539 85.55142211914063 42.98158264160156 85.55142211914063 C 43.51440048217773 85.55142211914063 44.04722595214844 85.77059936523438 44.45375442504883 86.20893859863281 C 45.26680755615234 87.08562469482422 45.26680755615234 88.50701141357422 44.45375442504883 89.38368225097656 L 39.73737335205078 94.46915435791016 L 47.45009994506836 102.785774230957 C 47.83821105957031 103.2064437866211 48.36569595336914 103.4428939819336 48.91585540771484 103.44287109375 C 48.91770553588867 103.44287109375 48.91962814331055 103.44287109375 48.92148208618164 103.4428634643555 L 55.46635437011719 103.4428634643555 C 58.91231918334961 103.4470443725586 61.70486450195313 106.458137512207 61.70871734619141 110.1737747192383 L 61.70873641967773 117.3486251831055 C 61.70724487304688 117.9440078735352 61.92668151855469 118.5152816772461 62.31813430786133 118.935173034668 L 65.87031555175781 122.7642135620117 L 70.64053344726563 117.6198272705078 C 71.04706573486328 117.1814804077148 71.57987976074219 116.9623107910156 72.11270141601563 116.9623107910156 C 72.64551544189453 116.9623107910156 73.17833709716797 117.1814804077148 73.58486175537109 117.6198272705078 C 74.39791870117188 118.4965209960938 74.39791870117188 119.9179000854492 73.58486175537109 120.7945709228516 L 68.81386566162109 125.938117980957 L 78.35507965087891 136.2260284423828 L 83.12528228759766 131.0816497802734 C 83.53186798095703 130.6432495117188 84.0645751953125 130.4241333007813 84.59746551513672 130.4241333007813 Z M 49.22397232055664 34.87822723388672 L 43.04738998413086 41.53817367553711 C 48.50844573974609 48.908935546875 48.50844573974609 59.3746452331543 43.04738998413086 66.74540710449219 L 97.48249816894531 125.4405899047852 C 101.7513427734375 130.0684356689453 107.5536422729492 132.6693878173828 113.6053619384766 132.6691131591797 C 113.6257476806641 132.6691131591797 113.6470565795898 132.6690826416016 113.6674423217773 132.6690216064453 L 138.6981048583984 132.6690216064453 L 138.6981048583984 130.4253845214844 C 138.691650390625 124.2326431274414 134.0374145507813 119.2141571044922 128.2941131591797 119.2071914672852 L 117.0788955688477 119.2071914672852 C 112.9535751342773 119.2063903808594 109.2181015014648 116.5782623291016 107.5559005737305 112.5071334838867 L 103.8812103271484 103.5017547607422 L 97.08220672607422 103.5017547607422 C 95.93302917480469 103.5017547607422 95.00142669677734 102.4972457885742 95.00142669677734 101.2581176757813 C 95.00142669677734 100.0189895629883 95.93302917480469 99.01448059082031 97.08220672607422 99.01448059082031 L 102.0501174926758 99.01448059082031 L 100.2190093994141 94.52722930908203 L 92.92062377929688 94.52722930908203 C 91.77144622802734 94.52722930908203 90.83984375 93.52269744873047 90.83984375 92.28359222412109 C 90.83984375 91.04446411132813 91.77144622802734 90.03995513916016 92.92062377929688 90.03995513916016 L 98.38791656494141 90.03995513916016 L 96.55680847167969 85.55268096923828 L 88.75904846191406 85.55268096923828 C 87.60984802246094 85.55268096923828 86.67824554443359 84.54817199707031 86.67824554443359 83.30904388427734 C 86.67824554443359 82.06991577148438 87.60984802246094 81.06540679931641 88.75904846191406 81.06540679931641 L 94.72571563720703 81.06540679931641 L 92.89460754394531 76.57814025878906 L 86.61582946777344 76.57814025878906 C 86.59173583984375 76.57820892333984 86.56871795654297 76.57823944091797 86.54463195800781 76.57823944091797 C 79.39347076416016 76.57823944091797 72.5350341796875 73.50413513183594 67.49073791503906 68.03549957275391 L 57.14659118652344 56.8818473815918 C 52.05777359008789 51.42444610595703 49.20497131347656 43.99892044067383 49.22397232055664 36.26002883911133 L 49.22397232055664 34.87822723388672 Z M 118.8629150390625 114.7199401855469 L 114.2851715087891 103.5017547607422 L 108.427734375 103.5017547607422 L 111.3655319213867 110.7011032104492 C 112.3633575439453 113.1435394287109 114.6049194335938 114.7199401855469 117.0788955688477 114.7199401855469 L 118.8629150390625 114.7199401855469 Z M 112.4540786743164 99.01448059082031 L 110.6229705810547 94.52722930908203 L 104.7655334472656 94.52722930908203 L 106.5966415405273 99.01448059082031 L 112.4540786743164 99.01448059082031 Z M 108.791877746582 90.03995513916016 L 106.9607696533203 85.55268096923828 L 101.1033554077148 85.55268096923828 L 102.9344482421875 90.03995513916016 L 108.791877746582 90.03995513916016 Z M 105.1296844482422 81.06540679931641 L 103.2985916137695 76.57814025878906 L 97.44115447998047 76.57814025878906 L 99.27226257324219 81.06540679931641 L 105.1296844482422 81.06540679931641 Z M 59.62838363647461 24.58932876586914 C 59.08686828613281 24.58932876586914 58.55461120605469 24.81734466552734 58.15655517578125 25.24657440185547 L 53.38555526733398 30.39095497131348 L 53.38555526733398 36.26002883911133 C 53.36888122558594 42.80842971801758 55.78246307373047 49.09188079833984 60.08829879760742 53.70989990234375 L 70.43244171142578 64.86355590820313 C 74.70064544677734 69.49053955078125 80.50261688232422 72.09097290039063 86.55329895019531 72.09097290039063 C 86.57405090332031 72.09097290039063 86.59506988525391 72.0909423828125 86.61582946777344 72.09088134765625 L 91.06351470947266 72.09088134765625 L 87.40131378173828 63.11633682250977 L 87.33110046386719 63.11633682250977 C 87.31411743164063 63.11638641357422 87.29756927490234 63.11640930175781 87.28058624267578 63.11640930175781 C 82.32942962646484 63.11640930175781 77.58123016357422 60.98802185058594 74.08893585205078 57.20155715942383 L 67.19370269775391 49.76670074462891 C 63.67033386230469 45.98822784423828 61.69526290893555 40.8469352722168 61.70871734619141 35.48877334594727 L 61.70871734619141 26.83310127258301 C 61.70877075195313 25.92562866210938 61.20178985595703 25.10748291015625 60.42422485351563 24.76019096374512 C 60.16677093505859 24.64519882202148 59.89645004272461 24.58932876586914 59.62838363647461 24.58932876586914 Z M 101.4674987792969 72.09088134765625 L 97.8052978515625 63.11633682250977 L 91.94786071777344 63.11633682250977 L 95.61006164550781 72.09088134765625 L 101.4674987792969 72.09088134765625 Z M 40.08304595947266 44.73451995849609 L 31.35853576660156 54.14179229736328 L 40.08304595947266 63.54906463623047 C 43.94773483276367 57.96977233886719 43.94773483276367 50.31380844116211 40.08304595947266 44.73451995849609 Z M 88.75904846191406 49.65451812744141 C 87.61038970947266 49.65591812133789 86.67953491210938 50.65961074829102 86.67824554443359 51.89815521240234 L 86.67824554443359 58.61195373535156 C 86.89517211914063 58.62233734130859 87.11262512207031 58.62906265258789 87.33110046386719 58.62906265258789 L 97.08220672607422 58.62906265258789 L 97.08220672607422 51.89815521240234 C 97.08091735839844 50.65961074829102 96.15006256103516 49.65591812133789 95.00142669677734 49.65451812744141 L 88.75904846191406 49.65451812744141 Z M 70.89360809326172 20.48726463317871 L 65.81700897216797 25.96146392822266 C 65.85206604003906 26.2504825592041 65.86988067626953 26.54162788391113 65.87031555175781 26.83310127258301 L 65.87031555175781 35.48877334594727 C 65.85964202880859 39.65657424926758 67.39584350585938 43.65573883056641 70.13645935058594 46.59477233886719 L 77.03170013427734 54.02960968017578 C 78.57624816894531 55.70066452026367 80.45135498046875 56.97333526611328 82.51666259765625 57.75235366821289 L 82.51666259765625 51.89815521240234 C 82.52053833007813 48.18251800537109 85.31307983398438 45.17142868041992 88.75904846191406 45.16726303100586 L 95.00142669677734 45.16726303100586 C 95.00345611572266 45.16726303100586 95.00527954101563 45.16726303100586 95.00730133056641 45.16726303100586 C 96.45020294189453 45.16726303100586 97.84835815429688 45.7088737487793 98.96142578125 46.69910049438477 L 123.2708282470703 20.48726463317871 L 70.89360809326172 20.48726463317871 Z" stroke="none" fill="#707070"/>
    </g>
  </g>
</svg>
