<svg id="to-do-list" xmlns="http://www.w3.org/2000/svg" width="124" height="124" viewBox="0 0 124 124">
  <path id="Path_5" data-name="Path 5" d="M14.531,124H80.406a14.548,14.548,0,0,0,14.531-14.531V10.9A3.633,3.633,0,0,0,91.3,7.266H73.141V3.633A3.633,3.633,0,0,0,69.508,0H40.2A3.633,3.633,0,0,0,36.57,3.633V7.266H18.406A3.633,3.633,0,0,0,14.773,10.9v91.3H3.633A3.633,3.633,0,0,0,0,105.836v3.633A14.548,14.548,0,0,0,14.531,124ZM43.836,7.266H65.875v7.266H43.836Zm-21.8,7.266H36.57v3.633A3.633,3.633,0,0,0,40.2,21.8h29.3a3.633,3.633,0,0,0,3.633-3.633V14.531H87.672v94.937a7.266,7.266,0,0,1-14.531,0v-3.633a3.633,3.633,0,0,0-3.633-3.633H22.039Zm43.836,94.937a14.446,14.446,0,0,0,1.95,7.266H14.531a7.274,7.274,0,0,1-7.266-7.266Z"/>
  <path id="Path_6" data-name="Path 6" d="M432.9,61A10.911,10.911,0,0,0,422,71.9v65.391a3.885,3.885,0,0,0,.183,1.137l7.266,22.039a3.633,3.633,0,0,0,6.9,0l7.266-22.039a3.866,3.866,0,0,0,.183-1.137V71.9A10.911,10.911,0,0,0,432.9,61Zm-3.633,72.656V82.8h7.266v50.859ZM432.9,68.266a3.637,3.637,0,0,1,3.633,3.633v3.633h-7.266V71.9A3.637,3.637,0,0,1,432.9,68.266Zm-2.243,72.656h4.486l-2.243,6.8Z" transform="translate(-319.797 -46.227)"/>
  <path id="Path_7" data-name="Path 7" d="M214.633,158.266h22.039a3.633,3.633,0,1,0,0-7.266H214.633a3.633,3.633,0,1,0,0,7.266Z" transform="translate(-159.898 -114.43)"/>
  <path id="Path_8" data-name="Path 8" d="M236.672,241H214.633a3.633,3.633,0,1,0,0,7.266h22.039a3.633,3.633,0,0,0,0-7.266Z" transform="translate(-159.898 -182.633)"/>
  <path id="Path_9" data-name="Path 9" d="M240.3,334.633A3.633,3.633,0,0,0,236.672,331H214.633a3.633,3.633,0,1,0,0,7.266h22.039A3.633,3.633,0,0,0,240.3,334.633Z" transform="translate(-159.898 -250.836)"/>
  <path id="Path_10" data-name="Path 10" d="M129.329,134.467a3.632,3.632,0,0,0,5.137,0l7.266-7.266a3.633,3.633,0,0,0-5.138-5.138l-4.7,4.7-4.7-4.7a3.633,3.633,0,1,0-5.138,5.138Z" transform="translate(-91.695 -91.695)"/>
  <path id="Path_11" data-name="Path 11" d="M129.329,224.467a3.632,3.632,0,0,0,5.137,0l7.266-7.266a3.633,3.633,0,0,0-5.138-5.138l-4.7,4.7-4.7-4.7a3.633,3.633,0,1,0-5.138,5.138Z" transform="translate(-91.695 -159.898)"/>
  <path id="Path_12" data-name="Path 12" d="M141.732,302.065a3.633,3.633,0,0,0-5.138,0l-4.7,4.7-4.7-4.7a3.633,3.633,0,1,0-5.138,5.138l7.266,7.266a3.633,3.633,0,0,0,5.138,0l7.266-7.266A3.632,3.632,0,0,0,141.732,302.065Z" transform="translate(-91.695 -228.102)"/>
</svg>
